<?xml version="1.0" encoding="UTF-8"?>
<!DOCTYPE svg PUBLIC "-//W3C//DTD SVG 1.1//EN" "http://www.w3.org/Graphics/SVG/1.1/DTD/svg11.dtd">
<svg xmlns="http://www.w3.org/2000/svg" version="1.1" width="1000px" height="356px" style="shape-rendering:geometricPrecision; text-rendering:geometricPrecision; image-rendering:optimizeQuality; fill-rule:evenodd; clip-rule:evenodd" xmlns:xlink="http://www.w3.org/1999/xlink">
<g><path style="opacity:1" fill="#355a75" d="M 226.5,187.5 C 226.821,189.048 227.821,189.715 229.5,189.5C 229.831,163.328 229.498,137.328 228.5,111.5C 222.407,105.388 221.907,98.7211 227,91.5C 234.893,85.71 242.227,86.3766 249,93.5C 252.772,100.699 251.605,107.032 245.5,112.5C 246.815,148.11 246.815,183.443 245.5,218.5C 235.398,212.699 225.231,207.033 215,201.5C 201.435,209.033 187.935,216.7 174.5,224.5C 159.833,216.167 145.167,207.833 130.5,199.5C 109.295,211.867 87.962,224.033 66.5,236C 87.8399,249.005 109.507,261.505 131.5,273.5C 145.125,271.061 151.292,276.728 150,290.5C 145.671,299.463 138.837,301.963 129.5,298C 126.226,295.554 123.892,292.388 122.5,288.5C 92.5,271.167 62.5,253.833 32.5,236.5C 41.924,230.407 51.5907,224.74 61.5,219.5C 63.4848,203.868 64.1514,187.868 63.5,171.5C 77.5521,162.803 91.8855,154.47 106.5,146.5C 107.829,121.663 107.829,96.6634 106.5,71.5C 105.893,71.6236 105.56,71.9569 105.5,72.5C 84.5629,84.6399 63.5629,96.8066 42.5,109C 37.722,120.384 29.722,123.384 18.5,118C 11.3491,109.709 12.0158,102.042 20.5,95C 25.1202,93.3366 29.7869,93.0033 34.5,94C 64.1667,76.8333 93.8333,59.6667 123.5,42.5C 123.387,53.9916 123.554,65.6583 124,77.5C 137.085,85.2929 150.251,92.9595 163.5,100.5C 164.167,117.833 164.833,135.167 165.5,152.5C 185.698,164.431 206.031,176.098 226.5,187.5 Z M 145.5,109.5 C 145.783,110.289 146.283,110.956 147,111.5C 146.844,128.863 147.678,145.863 149.5,162.5C 165.272,172.226 181.272,181.726 197.5,191C 190.162,196.004 182.496,200.504 174.5,204.5C 159.833,196.167 145.167,187.833 130.5,179.5C 113.748,189.293 96.9149,198.96 80,208.5C 79.3333,199.5 79.3333,190.5 80,181.5C 94.3333,173.167 108.667,164.833 123,156.5C 123.333,136.833 123.667,117.167 124,97.5C 130.818,102.157 137.985,106.157 145.5,109.5 Z"/></g>
<g><path style="opacity:1" fill="#7dbeb9" d="M 146.5,44.5 C 166.145,55.0771 185.645,66.0771 205,77.5C 205.333,93.8333 205.667,110.167 206,126.5C 212.561,134.894 211.728,142.394 203.5,149C 193.325,152.995 186.491,149.829 183,139.5C 182.369,133.897 184.203,129.23 188.5,125.5C 187.174,112.97 187.174,100.47 188.5,88C 174.918,80.2929 161.418,72.4596 148,64.5C 147.757,57.7853 147.257,51.1187 146.5,44.5 Z"/></g>
<g><path style="opacity:0.408" fill="#a8b9c4" d="M 105.5,72.5 C 105.56,71.9569 105.893,71.6236 106.5,71.5C 107.829,96.6634 107.829,121.663 106.5,146.5C 106.831,121.661 106.498,96.9944 105.5,72.5 Z"/></g>
<g><path style="opacity:1" fill="#77bbb6" d="M 411.5,151.5 C 411.833,152.833 412.167,152.833 412.5,151.5C 421.662,142.505 430.995,133.672 440.5,125C 461.175,124.167 481.841,124.334 502.5,125.5C 509,141.833 515.5,158.167 522,174.5C 528.797,157.913 535.297,141.246 541.5,124.5C 549.5,124.5 557.5,124.5 565.5,124.5C 566.698,127.426 567.698,130.426 568.5,133.5C 555.741,162.242 543.241,191.242 531,220.5C 518.542,238.985 501.709,244.485 480.5,237C 477.274,235.894 474.607,234.061 472.5,231.5C 475.706,224.922 479.039,218.422 482.5,212C 485.495,212.646 488.495,213.646 491.5,215C 498.235,217.051 503.235,215.051 506.5,209C 495.575,182.317 484.242,155.817 472.5,129.5C 462.527,139.807 452.527,150.14 442.5,160.5C 454.118,176.12 466.118,191.453 478.5,206.5C 479.583,207.365 479.749,208.365 479,209.5C 466.909,208.677 454.742,208.177 442.5,208C 435,198.5 427.5,189 420,179.5C 417.04,182.613 414.206,185.78 411.5,189C 412.478,195.41 412.811,201.91 412.5,208.5C 402.5,208.5 392.5,208.5 382.5,208.5C 382.5,170.5 382.5,132.5 382.5,94.5C 392.167,94.5 401.833,94.5 411.5,94.5C 411.5,113.5 411.5,132.5 411.5,151.5 Z"/></g>
<g><path style="opacity:0.329" fill="#d6eae9" d="M 412.5,151.5 C 412.167,151.5 411.833,151.5 411.5,151.5C 411.5,132.5 411.5,113.5 411.5,94.5C 401.833,94.5 392.167,94.5 382.5,94.5C 382.5,132.5 382.5,170.5 382.5,208.5C 381.501,170.337 381.168,132.004 381.5,93.5C 391.833,93.5 402.167,93.5 412.5,93.5C 412.5,112.833 412.5,132.167 412.5,151.5 Z"/></g>
<g><path style="opacity:0.706" fill="#6b879a" d="M 145.5,109.5 C 146.496,109.414 147.329,109.748 148,110.5C 148.181,127.907 148.681,145.24 149.5,162.5C 147.678,145.863 146.844,128.863 147,111.5C 146.283,110.956 145.783,110.289 145.5,109.5 Z"/></g>
<g><path style="opacity:1" fill="#7bbdb8" d="M 23.5,213.5 C 22.1739,191.598 22.1739,169.598 23.5,147.5C 36.6058,139.441 49.9391,131.608 63.5,124C 67.771,112.365 75.4377,109.365 86.5,115C 93.6434,123.333 92.9767,130.999 84.5,138C 80.7059,139.72 76.8725,139.886 73,138.5C 62,144.833 51,151.167 40,157.5C 39.8329,173.51 39.3329,189.51 38.5,205.5C 33.6049,208.446 28.6049,211.113 23.5,213.5 Z"/></g>
<g><path style="opacity:0.294" fill="#bfcbd4" d="M 228.5,111.5 C 229.498,137.328 229.831,163.328 229.5,189.5C 227.821,189.715 226.821,189.048 226.5,187.5C 227.117,187.611 227.617,187.944 228,188.5C 228.5,162.835 228.667,137.169 228.5,111.5 Z"/></g>
<g><path style="opacity:0.729" fill="#6a869a" d="M 920.5,123.5 C 909.321,123.172 898.321,123.505 887.5,124.5C 885.775,124.157 885.275,123.157 886,121.5C 897.598,122.157 909.098,122.824 920.5,123.5 Z"/></g>
<g><path style="opacity:0.729" fill="#6e899c" d="M 981.5,124.5 C 971.347,123.506 961.014,123.172 950.5,123.5C 961.235,122.823 972.069,122.156 983,121.5C 983.725,123.157 983.225,124.157 981.5,124.5 Z"/></g>
<g><path style="opacity:1" fill="#7abdb7" d="M 327.5,122.5 C 339.827,122.258 351.827,124.091 363.5,128C 365.002,128.583 366.335,129.416 367.5,130.5C 364.661,137.511 361.328,144.178 357.5,150.5C 345.94,144.627 334.107,143.627 322,147.5C 320.643,151.143 321.81,153.31 325.5,154C 336.353,155.503 347.02,157.836 357.5,161C 372.095,171.226 374.261,183.726 364,198.5C 353.698,206.768 341.865,210.768 328.5,210.5C 314.873,210.568 302.206,207.235 290.5,200.5C 293.833,193.833 297.167,187.167 300.5,180.5C 313.41,187.615 326.91,189.282 341,185.5C 341.863,183.251 341.363,181.418 339.5,180C 329.509,178.001 319.509,176.001 309.5,174C 294.853,168.205 289.686,157.705 294,142.5C 297.63,134.205 303.797,128.705 312.5,126C 317.586,124.62 322.586,123.454 327.5,122.5 Z"/></g>
<g><path style="opacity:1" fill="#325874" d="M 756.5,122.5 C 776.567,121.122 792.4,128.455 804,144.5C 814.64,167.994 809.807,187.494 789.5,203C 767.731,214.155 747.065,212.489 727.5,198C 714.468,184.363 710.968,168.53 717,150.5C 724.853,133.658 738.019,124.325 756.5,122.5 Z M 756.5,147.5 C 767.037,145.681 774.204,149.681 778,159.5C 781.456,177.358 774.29,185.858 756.5,185C 748.473,181.291 744.473,174.958 744.5,166C 744.885,157.377 748.885,151.21 756.5,147.5 Z"/></g>
<g><path style="opacity:1" fill="#345a75" d="M 874.5,149.5 C 865.647,148.938 858.814,152.271 854,159.5C 852.545,175.763 852.045,192.096 852.5,208.5C 842.167,208.5 831.833,208.5 821.5,208.5C 821.5,180.5 821.5,152.5 821.5,124.5C 831.167,124.5 840.833,124.5 850.5,124.5C 850.335,127.518 850.502,130.518 851,133.5C 855.22,128.105 860.72,125.105 867.5,124.5C 870.579,124.74 873.579,124.407 876.5,123.5C 877.498,132.141 877.831,140.808 877.5,149.5C 876.5,149.5 875.5,149.5 874.5,149.5 Z"/></g>
<g><path style="opacity:1" fill="#305772" d="M 920.5,123.5 C 925.557,129.922 930.39,136.589 935,143.5C 939.945,136.584 945.111,129.917 950.5,123.5C 961.014,123.172 971.347,123.506 981.5,124.5C 971.724,137.87 962.057,151.37 952.5,165C 962.715,179.268 973.048,193.434 983.5,207.5C 972.346,208.495 961.012,208.828 949.5,208.5C 944.354,201.568 939.188,194.568 934,187.5C 928.824,194.53 923.657,201.53 918.5,208.5C 907.321,208.828 896.321,208.495 885.5,207.5C 895.569,193.257 906.235,179.424 917.5,166C 906.87,152.549 896.87,138.716 887.5,124.5C 898.321,123.505 909.321,123.172 920.5,123.5 Z"/></g>
<g><path style="opacity:1" fill="#325873" d="M 684.5,207.5 C 674.418,207.807 664.418,207.474 654.5,206.5C 649.376,192.63 644.543,178.63 640,164.5C 634.923,178.567 629.757,192.567 624.5,206.5C 614.582,207.474 604.582,207.807 594.5,207.5C 585.272,183.041 576.605,158.374 568.5,133.5C 567.698,130.426 566.698,127.426 565.5,124.5C 575.083,124.182 584.583,124.515 594,125.5C 599.732,141.363 605.066,157.363 610,173.5C 615.864,157.576 621.53,141.576 627,125.5C 635.774,124.184 644.607,124.184 653.5,125.5C 659.279,141.394 664.779,157.394 670,173.5C 675.864,157.576 681.53,141.576 687,125.5C 696,124.833 705,124.167 714,123.5C 704.689,151.595 694.856,179.595 684.5,207.5 Z"/></g>
<g><path style="opacity:0.769" fill="#758ea1" d="M 874.5,149.5 C 875.5,149.5 876.5,149.5 877.5,149.5C 877.831,140.808 877.498,132.141 876.5,123.5C 873.579,124.407 870.579,124.74 867.5,124.5C 870.946,123.313 874.613,122.646 878.5,122.5C 878.5,131.833 878.5,141.167 878.5,150.5C 876.901,150.768 875.568,150.434 874.5,149.5 Z"/></g>
<g><path style="opacity:0.196" fill="#e3f0ef" d="M 23.5,147.5 C 22.1739,169.598 22.1739,191.598 23.5,213.5C 23.44,214.043 23.1067,214.376 22.5,214.5C 22.1667,203.333 21.8333,192.167 21.5,181C 21.5011,169.479 22.1678,158.313 23.5,147.5 Z"/></g>
<g><path style="opacity:0.337" fill="#b3c2cb" d="M 63.5,171.5 C 64.1514,187.868 63.4848,203.868 61.5,219.5C 62.1526,203.402 62.8193,187.402 63.5,171.5 Z"/></g>
<g><path style="opacity:0.702" fill="#708b9e" d="M 624.5,206.5 C 619.881,207.828 614.881,208.494 609.5,208.5C 604.322,208.499 599.322,208.166 594.5,207.5C 604.582,207.807 614.582,207.474 624.5,206.5 Z"/></g>
<g><path style="opacity:0.702" fill="#718c9f" d="M 654.5,206.5 C 664.418,207.474 674.418,207.807 684.5,207.5C 679.678,208.166 674.678,208.499 669.5,208.5C 664.119,208.494 659.119,207.828 654.5,206.5 Z"/></g>
<g><path style="opacity:0.188" fill="#d8dfe4" d="M 885.5,207.5 C 896.321,208.495 907.321,208.828 918.5,208.5C 907.326,209.824 895.993,209.824 884.5,208.5C 884.624,207.893 884.957,207.56 885.5,207.5 Z"/></g>
<g><path style="opacity:0.188" fill="#d6dee3" d="M 983.5,207.5 C 984.043,207.56 984.376,207.893 984.5,208.5C 972.673,209.824 961.007,209.824 949.5,208.5C 961.012,208.828 972.346,208.495 983.5,207.5 Z"/></g>
<g><path style="opacity:1" fill="#7bbeb8" d="M 124.5,220.5 C 128.41,220.263 132.077,221.096 135.5,223C 138.681,226.391 141.348,230.057 143.5,234C 153.833,239.833 164.167,245.667 174.5,251.5C 187.935,243.7 201.435,236.033 215,228.5C 220.936,231.213 226.436,234.546 231.5,238.5C 212.664,249.753 193.664,260.753 174.5,271.5C 160.833,263.667 147.167,255.833 133.5,248C 122.264,250.218 115.597,245.718 113.5,234.5C 114.254,227.426 117.92,222.759 124.5,220.5 Z"/></g>
<g><path style="opacity:0.588" fill="#808080" d="M 316.5,261.5 C 317.449,260.848 318.615,260.514 320,260.5C 321.681,260.608 322.848,261.275 323.5,262.5C 321.283,261.631 318.95,261.298 316.5,261.5 Z"/></g>
<g><path style="opacity:0.587" fill="#7c7c7c" d="M 574.5,262.5 C 572.167,261.167 569.833,261.167 567.5,262.5C 568.152,261.275 569.319,260.608 571,260.5C 572.681,260.608 573.848,261.275 574.5,262.5 Z"/></g>
<g><path style="opacity:0.591" fill="#858585" d="M 860.5,262.5 C 858.389,261.258 856.389,261.258 854.5,262.5C 853.957,262.44 853.624,262.107 853.5,261.5C 854.667,261.167 855.833,260.833 857,260.5C 858.681,260.608 859.848,261.275 860.5,262.5 Z"/></g>
<g><path style="opacity:1" fill="#212121" d="M 316.5,261.5 C 318.95,261.298 321.283,261.631 323.5,262.5C 328.736,273.312 333.736,284.312 338.5,295.5C 337.448,297.256 335.781,297.923 333.5,297.5C 331.67,295.174 330.337,292.507 329.5,289.5C 323.167,288.167 316.833,288.167 310.5,289.5C 309.153,292.193 307.82,294.86 306.5,297.5C 304.219,297.923 302.552,297.256 301.5,295.5C 306.113,283.995 311.113,272.662 316.5,261.5 Z M 326.5,282.5 C 322.03,283.486 317.363,283.819 312.5,283.5C 315.259,278.313 317.759,272.98 320,267.5C 322.076,272.57 324.243,277.57 326.5,282.5 Z"/></g>
<g><path style="opacity:1" fill="#2a2a2a" d="M 356.5,292.5 C 359.304,293.638 362.304,293.805 365.5,293C 366.056,292.617 366.389,292.117 366.5,291.5C 370.411,287.382 372.911,288.049 374,293.5C 362.552,301.121 352.218,299.788 343,289.5C 337.231,272.702 343.065,262.702 360.5,259.5C 366.289,259.728 370.955,262.061 374.5,266.5C 373.788,268.046 372.622,269.046 371,269.5C 363.078,263.815 355.744,264.482 349,271.5C 344.648,281.142 347.148,288.142 356.5,292.5 Z"/></g>
<g><path style="opacity:1" fill="#2b2b2b" d="M 395.5,259.5 C 402.088,259.138 407.421,261.471 411.5,266.5C 410.788,268.046 409.622,269.046 408,269.5C 398.997,263.504 391.331,264.837 385,273.5C 381.974,287.145 387.474,293.312 401.5,292C 403.925,290.829 406.258,289.829 408.5,289C 410.329,290.113 411.163,291.613 411,293.5C 399.552,301.121 389.218,299.788 380,289.5C 374.387,273.723 379.553,263.723 395.5,259.5 Z"/></g>
<g><path style="opacity:0.999" fill="#030303" d="M 418.5,261.5 C 427.167,261.5 435.833,261.5 444.5,261.5C 444.5,262.833 444.5,264.167 444.5,265.5C 437.5,265.5 430.5,265.5 423.5,265.5C 423.5,269.167 423.5,272.833 423.5,276.5C 429.31,277.49 435.31,277.823 441.5,277.5C 441.5,278.5 441.5,279.5 441.5,280.5C 435.5,280.5 429.5,280.5 423.5,280.5C 423.5,284.833 423.5,289.167 423.5,293.5C 430.5,293.5 437.5,293.5 444.5,293.5C 444.5,294.833 444.5,296.167 444.5,297.5C 435.833,297.5 427.167,297.5 418.5,297.5C 418.5,285.5 418.5,273.5 418.5,261.5 Z"/></g>
<g><path style="opacity:1" fill="#040404" d="M 453.5,261.5 C 455.167,261.5 456.833,261.5 458.5,261.5C 458.5,272.167 458.5,282.833 458.5,293.5C 465.167,293.5 471.833,293.5 478.5,293.5C 478.5,294.833 478.5,296.167 478.5,297.5C 470.167,297.5 461.833,297.5 453.5,297.5C 453.5,285.5 453.5,273.5 453.5,261.5 Z"/></g>
<g><path style="opacity:0.999" fill="#0b0b0b" d="M 484.5,260.5 C 493.167,260.5 501.833,260.5 510.5,260.5C 510.5,262.167 510.5,263.833 510.5,265.5C 503.5,265.5 496.5,265.5 489.5,265.5C 489.5,269.167 489.5,272.833 489.5,276.5C 495.31,277.49 501.31,277.823 507.5,277.5C 507.5,278.5 507.5,279.5 507.5,280.5C 501.5,280.5 495.5,280.5 489.5,280.5C 489.5,284.833 489.5,289.167 489.5,293.5C 496.5,293.5 503.5,293.5 510.5,293.5C 510.5,294.833 510.5,296.167 510.5,297.5C 501.833,297.5 493.167,297.5 484.5,297.5C 484.5,285.167 484.5,272.833 484.5,260.5 Z"/></g>
<g><path style="opacity:0.999" fill="#181818" d="M 539.5,261.5 C 544.305,262.132 547.472,264.799 549,269.5C 550.974,277.051 548.474,282.551 541.5,286C 544.383,289.376 547.049,292.876 549.5,296.5C 547.735,297.461 545.735,297.795 543.5,297.5C 540.913,293.733 538.08,290.067 535,286.5C 531.835,287.792 528.668,287.792 525.5,286.5C 524.518,289.962 524.185,293.629 524.5,297.5C 522.833,297.5 521.167,297.5 519.5,297.5C 519.5,285.5 519.5,273.5 519.5,261.5C 526.167,261.5 532.833,261.5 539.5,261.5 Z M 538.5,266.5 C 544.752,270.813 545.085,275.48 539.5,280.5C 534.881,281.314 530.214,281.647 525.5,281.5C 525.5,276.5 525.5,271.5 525.5,266.5C 529.833,266.5 534.167,266.5 538.5,266.5 Z"/></g>
<g><path style="opacity:1" fill="#222222" d="M 574.5,262.5 C 580.064,273.17 585.064,284.17 589.5,295.5C 588.448,297.256 586.781,297.923 584.5,297.5C 583.213,294.925 581.879,292.259 580.5,289.5C 574.167,288.167 567.833,288.167 561.5,289.5C 560.339,292.358 559.006,295.025 557.5,297.5C 555.219,297.923 553.552,297.256 552.5,295.5C 557.264,284.312 562.264,273.312 567.5,262.5C 569.833,261.167 572.167,261.167 574.5,262.5 Z M 577.5,282.5 C 573.167,283.833 568.833,283.833 564.5,282.5C 566.652,277.526 568.819,272.526 571,267.5C 573.181,272.526 575.348,277.526 577.5,282.5 Z"/></g>
<g><path style="opacity:0.999" fill="#0b0b0b" d="M 588.5,261.5 C 598.5,261.5 608.5,261.5 618.5,261.5C 618.5,262.833 618.5,264.167 618.5,265.5C 614.298,265.183 610.298,265.517 606.5,266.5C 606.5,276.833 606.5,287.167 606.5,297.5C 604.833,297.5 603.167,297.5 601.5,297.5C 601.828,286.654 601.494,275.987 600.5,265.5C 596.5,265.5 592.5,265.5 588.5,265.5C 588.5,264.167 588.5,262.833 588.5,261.5 Z"/></g>
<g><path style="opacity:0.028" fill="#f6f6f6" d="M 640.5,260.5 C 640.5,272.833 640.5,285.167 640.5,297.5C 642.167,297.5 643.833,297.5 645.5,297.5C 645.833,297.5 646.167,297.5 646.5,297.5C 644.393,298.468 642.059,298.802 639.5,298.5C 639.171,285.656 639.505,272.989 640.5,260.5 Z"/></g>
<g><path style="opacity:1" fill="#131313" d="M 640.5,260.5 C 643.652,259.959 646.152,260.959 648,263.5C 653.842,271.197 659.676,278.863 665.5,286.5C 665.56,287.043 665.893,287.376 666.5,287.5C 667.498,278.859 667.831,270.192 667.5,261.5C 668.833,261.5 670.167,261.5 671.5,261.5C 671.5,273.5 671.5,285.5 671.5,297.5C 670.167,297.5 668.833,297.5 667.5,297.5C 660.604,289.388 653.937,281.055 647.5,272.5C 647.217,271.711 646.717,271.044 646,270.5C 645.5,279.494 645.334,288.494 645.5,297.5C 643.833,297.5 642.167,297.5 640.5,297.5C 640.5,285.167 640.5,272.833 640.5,260.5 Z"/></g>
<g><path style="opacity:1" fill="#262626" d="M 713.5,265.5 C 713.167,266.167 712.833,266.833 712.5,267.5C 712.189,268.478 711.522,269.145 710.5,269.5C 702.374,263.83 694.874,264.497 688,271.5C 684.555,277.627 685.055,283.46 689.5,289C 694.748,292.491 700.414,293.325 706.5,291.5C 708.423,287.971 709.089,283.971 708.5,279.5C 710.167,279.5 711.833,279.5 713.5,279.5C 713.827,284.544 713.494,289.544 712.5,294.5C 699.863,301.59 689.363,299.257 681,287.5C 676.895,271.377 683.061,262.044 699.5,259.5C 705.045,259.782 709.712,261.782 713.5,265.5 Z"/></g>
<g><path style="opacity:1" fill="#292929" d="M 762.5,289.5 C 762.5,286.167 762.5,282.833 762.5,279.5C 764.167,279.5 765.833,279.5 767.5,279.5C 767.5,284.167 767.5,288.833 767.5,293.5C 765.11,296.028 762.11,297.528 758.5,298C 743.806,299.968 735.473,293.634 733.5,279C 734.726,266.941 741.393,260.441 753.5,259.5C 759.696,259.433 764.696,261.766 768.5,266.5C 767.167,267.5 765.833,268.5 764.5,269.5C 754.897,263.207 747.064,264.873 741,274.5C 739.98,289.467 746.814,294.967 761.5,291C 762.056,290.617 762.389,290.117 762.5,289.5 Z"/></g>
<g><path style="opacity:1" fill="#272727" d="M 807.5,296.5 C 805.735,297.461 803.735,297.795 801.5,297.5C 798.882,293.709 796.049,290.043 793,286.5C 789.835,287.792 786.668,287.792 783.5,286.5C 782.518,289.962 782.185,293.629 782.5,297.5C 780.833,297.5 779.167,297.5 777.5,297.5C 776.505,285.345 776.171,273.011 776.5,260.5C 783.508,260.334 790.508,260.5 797.5,261C 806.099,263.753 809.266,269.586 807,278.5C 805.167,281.667 802.667,284.167 799.5,286C 802.54,289.26 805.206,292.76 807.5,296.5 Z M 796.5,266.5 C 803.281,271.863 802.948,276.696 795.5,281C 791.514,281.499 787.514,281.666 783.5,281.5C 783.5,276.5 783.5,271.5 783.5,266.5C 787.833,266.5 792.167,266.5 796.5,266.5 Z"/></g>
<g><path style="opacity:1" fill="#2a2a2a" d="M 830.5,259.5 C 846.602,261.083 853.436,269.75 851,285.5C 845.305,297.233 836.138,301.066 823.5,297C 812.068,290.112 809.235,280.612 815,268.5C 819.015,263.251 824.181,260.251 830.5,259.5 Z M 829.5,265.5 C 843.939,266.708 848.439,274.042 843,287.5C 837.146,293.077 830.646,293.91 823.5,290C 817.923,284.146 817.09,277.646 821,270.5C 823.682,268.415 826.516,266.748 829.5,265.5 Z"/></g>
<g><path style="opacity:1" fill="#2b2b2b" d="M 904.5,261.5 C 906.415,261.216 908.081,261.549 909.5,262.5C 906.197,274.575 902.197,286.408 897.5,298C 895.527,298.495 893.527,298.662 891.5,298.5C 888.635,289.905 885.968,281.238 883.5,272.5C 883.719,271.325 883.386,270.325 882.5,269.5C 881.893,269.624 881.56,269.957 881.5,270.5C 879.105,279.686 876.105,288.686 872.5,297.5C 870.579,298.641 868.579,298.808 866.5,298C 862.201,286.271 858.201,274.438 854.5,262.5C 856.389,261.258 858.389,261.258 860.5,262.5C 863.739,270.216 866.405,278.216 868.5,286.5C 868.281,287.675 868.614,288.675 869.5,289.5C 870.107,289.376 870.44,289.043 870.5,288.5C 872.993,279.186 875.993,270.019 879.5,261C 881.579,260.192 883.579,260.359 885.5,261.5C 888.568,270.538 891.735,279.538 895,288.5C 897.902,279.289 901.068,270.289 904.5,261.5 Z"/></g>
<g><path style="opacity:0.999" fill="#000000" d="M 941.5,261.5 C 941.5,262.833 941.5,264.167 941.5,265.5C 937.5,265.5 933.5,265.5 929.5,265.5C 928.506,275.987 928.172,286.654 928.5,297.5C 927.167,297.5 925.833,297.5 924.5,297.5C 924.828,286.654 924.494,275.987 923.5,265.5C 919.5,265.5 915.5,265.5 911.5,265.5C 911.5,264.167 911.5,262.833 911.5,261.5C 921.5,261.5 931.5,261.5 941.5,261.5 Z"/></g>
<g><path style="opacity:1" fill="#131313" d="M 952.5,274.5 C 952.783,275.289 953.283,275.956 954,276.5C 960.166,275.186 966.333,275.186 972.5,276.5C 973.487,271.695 973.821,266.695 973.5,261.5C 975.167,261.5 976.833,261.5 978.5,261.5C 978.5,273.5 978.5,285.5 978.5,297.5C 976.833,297.5 975.167,297.5 973.5,297.5C 973.821,291.974 973.488,286.64 972.5,281.5C 965.646,281.176 958.979,281.509 952.5,282.5C 952.5,287.5 952.5,292.5 952.5,297.5C 950.833,297.5 949.167,297.5 947.5,297.5C 947.5,285.5 947.5,273.5 947.5,261.5C 949.167,261.5 950.833,261.5 952.5,261.5C 952.5,265.833 952.5,270.167 952.5,274.5 Z"/></g>
<g><path style="opacity:0.325" fill="#949494" d="M 453.5,261.5 C 453.5,261.167 453.5,260.833 453.5,260.5C 455.5,260.5 457.5,260.5 459.5,260.5C 459.5,271.167 459.5,281.833 459.5,292.5C 465.833,292.5 472.167,292.5 478.5,292.5C 478.5,292.833 478.5,293.167 478.5,293.5C 471.833,293.5 465.167,293.5 458.5,293.5C 458.5,282.833 458.5,272.167 458.5,261.5C 456.833,261.5 455.167,261.5 453.5,261.5 Z"/></g>
<g><path style="opacity:0.063" fill="#ececec" d="M 484.5,260.5 C 484.5,272.833 484.5,285.167 484.5,297.5C 493.167,297.5 501.833,297.5 510.5,297.5C 510.833,297.5 511.167,297.5 511.5,297.5C 502.348,298.494 493.015,298.827 483.5,298.5C 483.171,285.656 483.505,272.989 484.5,260.5 Z"/></g>
<g><path style="opacity:0.082" fill="#c8c8c8" d="M 539.5,261.5 C 532.833,261.5 526.167,261.5 519.5,261.5C 519.5,273.5 519.5,285.5 519.5,297.5C 521.167,297.5 522.833,297.5 524.5,297.5C 524.185,293.629 524.518,289.962 525.5,286.5C 525.5,290.5 525.5,294.5 525.5,298.5C 523.167,298.5 520.833,298.5 518.5,298.5C 518.5,285.833 518.5,273.167 518.5,260.5C 525.687,260.175 532.687,260.509 539.5,261.5 Z"/></g>
<g><path style="opacity:0.188" fill="#cccccc" d="M 623.5,260.5 C 625.833,260.5 628.167,260.5 630.5,260.5C 630.5,273.167 630.5,285.833 630.5,298.5C 628.167,298.5 625.833,298.5 623.5,298.5C 623.5,285.833 623.5,273.167 623.5,260.5 Z"/></g>
<g><path style="opacity:1" fill="#000000" d="M 624.5,261.5 C 626.167,261.5 627.833,261.5 629.5,261.5C 629.5,273.5 629.5,285.5 629.5,297.5C 627.833,297.5 626.167,297.5 624.5,297.5C 624.5,285.5 624.5,273.5 624.5,261.5 Z"/></g>
<g><path style="opacity:0.588" fill="#686868" d="M 667.5,297.5 C 668.833,297.5 670.167,297.5 671.5,297.5C 671.5,285.5 671.5,273.5 671.5,261.5C 670.167,261.5 668.833,261.5 667.5,261.5C 667.831,270.192 667.498,278.859 666.5,287.5C 665.893,287.376 665.56,287.043 665.5,286.5C 666.493,278.016 666.826,269.349 666.5,260.5C 668.5,260.5 670.5,260.5 672.5,260.5C 672.5,273.167 672.5,285.833 672.5,298.5C 670.585,298.784 668.919,298.451 667.5,297.5 Z"/></g>
<g><path style="opacity:0.412" fill="#a4a4a4" d="M 952.5,274.5 C 952.5,270.167 952.5,265.833 952.5,261.5C 950.833,261.5 949.167,261.5 947.5,261.5C 947.5,273.5 947.5,285.5 947.5,297.5C 947.167,297.5 946.833,297.5 946.5,297.5C 946.5,285.167 946.5,272.833 946.5,260.5C 948.833,260.5 951.167,260.5 953.5,260.5C 953.819,265.363 953.486,270.03 952.5,274.5 Z"/></g>
<g><path style="opacity:0.193" fill="#cbcbcb" d="M 972.5,281.5 C 973.488,286.64 973.821,291.974 973.5,297.5C 975.167,297.5 976.833,297.5 978.5,297.5C 978.5,285.5 978.5,273.5 978.5,261.5C 976.833,261.5 975.167,261.5 973.5,261.5C 973.821,266.695 973.487,271.695 972.5,276.5C 972.5,271.167 972.5,265.833 972.5,260.5C 974.833,260.5 977.167,260.5 979.5,260.5C 979.5,273.167 979.5,285.833 979.5,298.5C 977.167,298.5 974.833,298.5 972.5,298.5C 972.5,292.833 972.5,287.167 972.5,281.5 Z"/></g>
<g><path style="opacity:0.102" fill="#b8b8b8" d="M 418.5,261.5 C 427.318,260.507 436.318,260.173 445.5,260.5C 445.5,262.5 445.5,264.5 445.5,266.5C 438.5,266.5 431.5,266.5 424.5,266.5C 424.5,269.833 424.5,273.167 424.5,276.5C 424.167,276.5 423.833,276.5 423.5,276.5C 423.5,272.833 423.5,269.167 423.5,265.5C 430.5,265.5 437.5,265.5 444.5,265.5C 444.5,264.167 444.5,262.833 444.5,261.5C 435.833,261.5 427.167,261.5 418.5,261.5 Z"/></g>
<g><path style="opacity:0.102" fill="#d5d5d5" d="M 510.5,265.5 C 504.021,266.491 497.354,266.824 490.5,266.5C 490.5,269.833 490.5,273.167 490.5,276.5C 490.167,276.5 489.833,276.5 489.5,276.5C 489.5,272.833 489.5,269.167 489.5,265.5C 496.5,265.5 503.5,265.5 510.5,265.5 Z"/></g>
<g><path style="opacity:0.101" fill="#e6e6e6" d="M 588.5,260.5 C 588.5,260.833 588.5,261.167 588.5,261.5C 588.5,262.833 588.5,264.167 588.5,265.5C 592.5,265.5 596.5,265.5 600.5,265.5C 600.5,265.833 600.5,266.167 600.5,266.5C 596.167,266.5 591.833,266.5 587.5,266.5C 587.205,264.265 587.539,262.265 588.5,260.5 Z"/></g>
<g><path style="opacity:0.102" fill="#adadad" d="M 588.5,261.5 C 588.5,261.167 588.5,260.833 588.5,260.5C 598.833,260.5 609.167,260.5 619.5,260.5C 619.5,262.5 619.5,264.5 619.5,266.5C 615.167,266.5 610.833,266.5 606.5,266.5C 610.298,265.517 614.298,265.183 618.5,265.5C 618.5,264.167 618.5,262.833 618.5,261.5C 608.5,261.5 598.5,261.5 588.5,261.5 Z"/></g>
<g><path style="opacity:0.102" fill="#adadad" d="M 904.5,261.5 C 916.655,260.505 928.989,260.171 941.5,260.5C 941.5,260.833 941.5,261.167 941.5,261.5C 931.5,261.5 921.5,261.5 911.5,261.5C 911.5,262.833 911.5,264.167 911.5,265.5C 915.5,265.5 919.5,265.5 923.5,265.5C 923.5,265.833 923.5,266.167 923.5,266.5C 919.167,266.5 914.833,266.5 910.5,266.5C 910.768,264.901 910.434,263.568 909.5,262.5C 908.081,261.549 906.415,261.216 904.5,261.5 Z"/></g>
<g><path style="opacity:0.101" fill="#e8e8e8" d="M 941.5,260.5 C 942.461,262.265 942.795,264.265 942.5,266.5C 938.167,266.5 933.833,266.5 929.5,266.5C 929.5,266.167 929.5,265.833 929.5,265.5C 933.5,265.5 937.5,265.5 941.5,265.5C 941.5,264.167 941.5,262.833 941.5,261.5C 941.5,261.167 941.5,260.833 941.5,260.5 Z"/></g>
<g><path style="opacity:0.012" fill="#dddddd" d="M 713.5,265.5 C 714.757,266.623 714.424,267.289 712.5,267.5C 712.833,266.833 713.167,266.167 713.5,265.5 Z"/></g>
<g><path style="opacity:0.325" fill="#b9b9b9" d="M 538.5,266.5 C 534.167,266.5 529.833,266.5 525.5,266.5C 525.5,271.5 525.5,276.5 525.5,281.5C 525.167,281.5 524.833,281.5 524.5,281.5C 524.5,276.167 524.5,270.833 524.5,265.5C 529.363,265.181 534.03,265.514 538.5,266.5 Z"/></g>
<g><path style="opacity:0.502" fill="#8c8c8c" d="M 600.5,265.5 C 601.494,275.987 601.828,286.654 601.5,297.5C 603.167,297.5 604.833,297.5 606.5,297.5C 604.735,298.461 602.735,298.795 600.5,298.5C 600.5,287.833 600.5,277.167 600.5,266.5C 600.5,266.167 600.5,265.833 600.5,265.5 Z"/></g>
<g><path style="opacity:0.333" fill="#b8b8b8" d="M 796.5,266.5 C 792.167,266.5 787.833,266.5 783.5,266.5C 783.5,271.5 783.5,276.5 783.5,281.5C 782.512,276.36 782.179,271.026 782.5,265.5C 787.363,265.181 792.03,265.514 796.5,266.5 Z"/></g>
<g><path style="opacity:0.533" fill="#727272" d="M 923.5,265.5 C 924.494,275.987 924.828,286.654 924.5,297.5C 925.833,297.5 927.167,297.5 928.5,297.5C 928.172,286.654 928.506,275.987 929.5,265.5C 929.5,265.833 929.5,266.167 929.5,266.5C 929.5,277.167 929.5,287.833 929.5,298.5C 927.5,298.5 925.5,298.5 923.5,298.5C 923.5,287.833 923.5,277.167 923.5,266.5C 923.5,266.167 923.5,265.833 923.5,265.5 Z"/></g>
<g><path style="opacity:0.667" fill="#999999" d="M 881.5,270.5 C 881.56,269.957 881.893,269.624 882.5,269.5C 883.386,270.325 883.719,271.325 883.5,272.5C 882.833,271.833 882.167,271.167 881.5,270.5 Z"/></g>
<g><path style="opacity:0.384" fill="#9e9e9e" d="M 647.5,272.5 C 646.507,280.65 646.174,288.983 646.5,297.5C 646.167,297.5 645.833,297.5 645.5,297.5C 645.334,288.494 645.5,279.494 646,270.5C 646.717,271.044 647.217,271.711 647.5,272.5 Z"/></g>
<g><path style="opacity:0.298" fill="#a5a5a5" d="M 713.5,279.5 C 711.833,279.5 710.167,279.5 708.5,279.5C 709.089,283.971 708.423,287.971 706.5,291.5C 707.436,287.265 707.769,282.931 707.5,278.5C 709.735,278.205 711.735,278.539 713.5,279.5 Z"/></g>
<g><path style="opacity:0.184" fill="#cecece" d="M 767.5,293.5 C 767.5,288.833 767.5,284.167 767.5,279.5C 765.833,279.5 764.167,279.5 762.5,279.5C 762.5,282.833 762.5,286.167 762.5,289.5C 761.518,286.038 761.185,282.371 761.5,278.5C 763.833,278.5 766.167,278.5 768.5,278.5C 768.821,283.695 768.487,288.695 767.5,293.5 Z"/></g>
<g><path style="opacity:0.63" fill="#5d5d5d" d="M 539.5,280.5 C 539.082,281.222 538.416,281.722 537.5,282C 532.98,282.814 528.646,282.647 524.5,281.5C 524.833,281.5 525.167,281.5 525.5,281.5C 530.214,281.647 534.881,281.314 539.5,280.5 Z"/></g>
<g><path style="opacity:0.369" fill="#a3a3a3" d="M 326.5,282.5 C 327.043,282.56 327.376,282.893 327.5,283.5C 322.348,284.814 317.348,284.814 312.5,283.5C 317.363,283.819 322.03,283.486 326.5,282.5 Z"/></g>
<g><path style="opacity:0.369" fill="#a8a8a8" d="M 564.5,282.5 C 568.833,283.833 573.167,283.833 577.5,282.5C 578.043,282.56 578.376,282.893 578.5,283.5C 573.5,284.833 568.5,284.833 563.5,283.5C 563.624,282.893 563.957,282.56 564.5,282.5 Z"/></g>
<g><path style="opacity:0.031" fill="#f4f4f4" d="M 952.5,282.5 C 953.488,287.64 953.821,292.974 953.5,298.5C 950.941,298.802 948.607,298.468 946.5,297.5C 946.833,297.5 947.167,297.5 947.5,297.5C 949.167,297.5 950.833,297.5 952.5,297.5C 952.5,292.5 952.5,287.5 952.5,282.5 Z"/></g>
<g><path style="opacity:0.255" fill="#c0c0c0" d="M 868.5,286.5 C 869.167,287.167 869.833,287.833 870.5,288.5C 870.44,289.043 870.107,289.376 869.5,289.5C 868.614,288.675 868.281,287.675 868.5,286.5 Z"/></g>
<g><path style="opacity:0.333" fill="#bababa" d="M 783.5,286.5 C 783.5,290.5 783.5,294.5 783.5,298.5C 781.265,298.795 779.265,298.461 777.5,297.5C 779.167,297.5 780.833,297.5 782.5,297.5C 782.185,293.629 782.518,289.962 783.5,286.5 Z"/></g>
<g><path style="opacity:0.929" fill="#6d6d6d" d="M 366.5,291.5 C 366.389,292.117 366.056,292.617 365.5,293C 362.304,293.805 359.304,293.638 356.5,292.5C 359.902,292.658 363.236,292.324 366.5,291.5 Z"/></g>
<g><path style="opacity:0.584" fill="#818181" d="M 423.5,276.5 C 423.833,276.5 424.167,276.5 424.5,276.5C 430.5,276.5 436.5,276.5 442.5,276.5C 442.5,278.167 442.5,279.833 442.5,281.5C 436.5,281.5 430.5,281.5 424.5,281.5C 424.5,285.167 424.5,288.833 424.5,292.5C 431.5,292.5 438.5,292.5 445.5,292.5C 445.5,294.5 445.5,296.5 445.5,298.5C 436.318,298.827 427.318,298.493 418.5,297.5C 427.167,297.5 435.833,297.5 444.5,297.5C 444.5,296.167 444.5,294.833 444.5,293.5C 437.5,293.5 430.5,293.5 423.5,293.5C 423.5,289.167 423.5,284.833 423.5,280.5C 429.5,280.5 435.5,280.5 441.5,280.5C 441.5,279.5 441.5,278.5 441.5,277.5C 435.31,277.823 429.31,277.49 423.5,276.5 Z"/></g>
<g><path style="opacity:0.584" fill="#686868" d="M 489.5,276.5 C 489.833,276.5 490.167,276.5 490.5,276.5C 496.5,276.5 502.5,276.5 508.5,276.5C 508.5,278.167 508.5,279.833 508.5,281.5C 502.5,281.5 496.5,281.5 490.5,281.5C 490.5,285.167 490.5,288.833 490.5,292.5C 497.5,292.5 504.5,292.5 511.5,292.5C 511.5,294.167 511.5,295.833 511.5,297.5C 511.167,297.5 510.833,297.5 510.5,297.5C 510.5,296.167 510.5,294.833 510.5,293.5C 503.5,293.5 496.5,293.5 489.5,293.5C 489.5,289.167 489.5,284.833 489.5,280.5C 495.5,280.5 501.5,280.5 507.5,280.5C 507.5,279.5 507.5,278.5 507.5,277.5C 501.31,277.823 495.31,277.49 489.5,276.5 Z"/></g>
<g><path style="opacity:0.108" fill="#d0d0d0" d="M 301.5,295.5 C 302.552,297.256 304.219,297.923 306.5,297.5C 304.735,298.461 302.735,298.795 300.5,298.5C 300.263,297.209 300.596,296.209 301.5,295.5 Z"/></g>
<g><path style="opacity:0.106" fill="#dbdbdb" d="M 338.5,295.5 C 339.404,296.209 339.737,297.209 339.5,298.5C 337.265,298.795 335.265,298.461 333.5,297.5C 335.781,297.923 337.448,297.256 338.5,295.5 Z"/></g>
<g><path style="opacity:0.102" fill="#eaeaea" d="M 453.5,260.5 C 453.5,260.833 453.5,261.167 453.5,261.5C 453.5,273.5 453.5,285.5 453.5,297.5C 461.833,297.5 470.167,297.5 478.5,297.5C 478.5,296.167 478.5,294.833 478.5,293.5C 478.5,293.167 478.5,292.833 478.5,292.5C 479.461,294.265 479.795,296.265 479.5,298.5C 470.5,298.5 461.5,298.5 452.5,298.5C 452.171,285.656 452.505,272.989 453.5,260.5 Z"/></g>
<g><path style="opacity:0.106" fill="#e7e7e7" d="M 549.5,296.5 C 550.043,296.56 550.376,296.893 550.5,297.5C 548.027,298.797 545.693,298.797 543.5,297.5C 545.735,297.795 547.735,297.461 549.5,296.5 Z"/></g>
<g><path style="opacity:0.107" fill="#d9d9d9" d="M 552.5,295.5 C 553.552,297.256 555.219,297.923 557.5,297.5C 555.735,298.461 553.735,298.795 551.5,298.5C 551.263,297.209 551.596,296.209 552.5,295.5 Z"/></g>
<g><path style="opacity:0.108" fill="#d2d2d2" d="M 589.5,295.5 C 590.404,296.209 590.737,297.209 590.5,298.5C 588.265,298.795 586.265,298.461 584.5,297.5C 586.781,297.923 588.448,297.256 589.5,295.5 Z"/></g>
<g><path style="opacity:0.106" fill="#e7e7e7" d="M 807.5,296.5 C 808.043,296.56 808.376,296.893 808.5,297.5C 806.027,298.797 803.693,298.797 801.5,297.5C 803.735,297.795 805.735,297.461 807.5,296.5 Z"/></g>
</svg>
